<?xml version="1.0" standalone="no"?>
<!DOCTYPE svg PUBLIC "-//W3C//DTD SVG 20010904//EN"
 "http://www.w3.org/TR/2001/REC-SVG-20010904/DTD/svg10.dtd">
<svg version="1.0" xmlns="http://www.w3.org/2000/svg"
 width="1024.000000pt" height="1024.000000pt" viewBox="0 0 1024.000000 1024.000000"
 preserveAspectRatio="xMidYMid meet">
<metadata>
Created by potrace 1.11, written by Peter Selinger 2001-2013
</metadata>
<g transform="translate(0.000000,1024.000000) scale(0.100000,-0.100000)"
fill="#000000" stroke="none">
<path d="M2339 10236 c-2 -2 -33 -7 -69 -10 -582 -59 -1081 -300 -1514 -732
-432 -433 -667 -912 -743 -1519 -4 -33 -8 -1588 -10 -3455 -3 -3673 -6 -3440
48 -3623 117 -397 417 -709 813 -843 155 -53 172 -54 965 -54 l736 0 -1 1268
c0 697 1 1272 3 1277 2 7 435 9 1276 8 699 -1 1851 -2 2558 -2 l1287 -1 0
-1247 c0 -687 1 -1260 1 -1276 l1 -27 743 0 c800 1 787 0 952 56 362 121 679
438 800 798 58 176 54 -88 54 3666 0 2049 -4 3481 -10 3520 -41 293 -136 589
-266 830 -52 97 -152 253 -164 258 -5 2 -9 8 -9 14 0 17 -162 208 -271 318
-144 146 -219 211 -389 337 -51 39 -188 122 -270 165 -223 117 -478 202 -720
242 -52 9 -113 19 -135 23 -40 7 -5658 16 -5666 9z m4246 -2567 c6 -4 32 -10
58 -13 78 -11 255 -73 347 -123 47 -25 87 -49 90 -53 3 -4 15 -13 28 -19 27
-15 40 -24 136 -108 161 -139 292 -325 363 -514 29 -78 40 -117 68 -259 10
-45 16 -1460 7 -1461 -4 0 -1155 -1 -2559 -2 -2261 -2 -2552 0 -2555 13 -6 25
-1 1393 5 1425 3 17 8 50 12 75 11 74 64 239 104 320 89 178 231 352 379 462
31 24 59 45 62 48 12 12 110 68 170 97 116 56 257 96 380 109 30 3 56 7 58 8
6 6 2838 0 2847 -5z"/>
</g>
</svg>
