<?xml version="1.0" encoding="utf-8"?>
<!-- Generator: Adobe Illustrator 16.0.0, SVG Export Plug-In . SVG Version: 6.00 Build 0)  -->
<!DOCTYPE svg PUBLIC "-//W3C//DTD SVG 1.1//EN" "http://www.w3.org/Graphics/SVG/1.1/DTD/svg11.dtd">
<svg version="1.1" id="Layer_1" xmlns="http://www.w3.org/2000/svg" xmlns:xlink="http://www.w3.org/1999/xlink" x="0px" y="0px"
	 width="25px" height="25px" viewBox="0 0 25 25" enable-background="new 0 0 25 25" xml:space="preserve">
<g>
	<path fill="#D3D3D3" stroke="#000000" stroke-miterlimit="10" d="M23.888,15.004c-0.731-0.563-1.461-1.126-2.191-1.688
		c0.049-0.542,0.053-1.084,0.004-1.633c0.729-0.561,1.456-1.125,2.188-1.688c0.964-0.744,0.6-1.314,0.194-2.293
		c-0.405-0.978-0.55-1.637-1.758-1.482c-0.918,0.117-1.83,0.234-2.743,0.351c-0.35-0.419-0.739-0.803-1.155-1.149
		c0-0.001,0-0.001,0-0.002c0.121-0.915,0.239-1.83,0.355-2.744c0.155-1.209-0.507-1.354-1.483-1.761
		c-0.974-0.403-1.545-0.767-2.293,0.199c-0.561,0.728-1.13,1.458-1.691,2.188c0,0,0,0,0,0.003c-0.537-0.047-1.081-0.049-1.626-0.003
		l0,0c-0.562-0.729-1.128-1.46-1.692-2.188C9.25,0.149,8.681,0.512,7.703,0.916C6.726,1.322,6.064,1.468,6.221,2.677
		C6.338,3.594,6.455,4.506,6.572,5.42c0,0.001,0.002,0.001,0.002,0.001c-0.422,0.353-0.805,0.739-1.15,1.15l0,0
		C4.507,6.455,3.595,6.338,2.677,6.221C1.468,6.067,1.321,6.726,0.916,7.703C0.513,8.68,0.148,9.25,1.115,9.996
		c0.727,0.564,1.458,1.127,2.189,1.69l0,0c-0.046,0.539-0.049,1.084-0.002,1.63c-0.728,0.562-1.457,1.126-2.185,1.688
		c-0.966,0.745-0.603,1.315-0.201,2.295c0.408,0.975,0.553,1.635,1.763,1.481c0.915-0.115,1.829-0.233,2.742-0.353
		c0.351,0.421,0.739,0.805,1.153,1.148H6.572c-0.117,0.913-0.232,1.829-0.351,2.749c-0.157,1.204,0.505,1.348,1.482,1.756
		c0.978,0.406,1.546,0.771,2.292-0.193c0.563-0.732,1.13-1.463,1.692-2.191c0.541,0.048,1.083,0.05,1.63,0.003
		c0.562,0.728,1.127,1.457,1.688,2.188c0.745,0.964,1.315,0.6,2.293,0.193c0.979-0.406,1.64-0.552,1.483-1.756
		c-0.116-0.919-0.234-1.831-0.355-2.743c0.423-0.353,0.808-0.74,1.152-1.154c0.912,0.119,1.828,0.237,2.743,0.353
		c1.207,0.153,1.353-0.506,1.761-1.481C24.485,16.321,24.85,15.749,23.888,15.004z M7.654,14.505
		c-1.108-2.672,0.164-5.742,2.839-6.851c2.679-1.11,5.744,0.162,6.858,2.836c1.105,2.679-0.166,5.748-2.845,6.857
		C11.831,18.457,8.762,17.185,7.654,14.505z"/>
</g>
</svg>
