<?xml version="1.0" encoding="utf-8"?>
<!-- Generator: Adobe Illustrator 16.0.0, SVG Export Plug-In . SVG Version: 6.00 Build 0)  -->
<!DOCTYPE svg PUBLIC "-//W3C//DTD SVG 1.1//EN" "http://www.w3.org/Graphics/SVG/1.1/DTD/svg11.dtd">
<svg version="1.1" id="Layer_1" xmlns="http://www.w3.org/2000/svg" xmlns:xlink="http://www.w3.org/1999/xlink" x="0px" y="0px"
	 width="25px" height="25px" viewBox="64 64 25 25" enable-background="new 64 64 25 25" xml:space="preserve">
<g>
	<path fill="#D3D3D3" stroke="#000000" stroke-miterlimit="10" d="M88.5,83.701c0,2.649-2.15,4.799-4.797,4.799H69.3
		c-2.65,0-4.8-2.149-4.8-4.799v-14.4c0-2.65,2.15-4.801,4.8-4.801h14.401c2.648,0,4.799,2.15,4.799,4.801V83.701L88.5,83.701z"/>
	<path fill="#0B0C0B" d="M84.296,78.451c-0.524-0.403-1.048-0.809-1.572-1.211c0.036-0.388,0.038-0.778,0.002-1.171
		c0.524-0.403,1.046-0.808,1.57-1.212c0.692-0.534,0.431-0.943,0.14-1.645s-0.395-1.175-1.261-1.063
		c-0.659,0.084-1.313,0.168-1.968,0.252c-0.252-0.302-0.531-0.577-0.829-0.825c0-0.001,0-0.001,0-0.002
		c0.087-0.656,0.172-1.312,0.255-1.969c0.111-0.867-0.363-0.971-1.064-1.263c-0.699-0.289-1.109-0.55-1.645,0.142
		c-0.402,0.523-0.81,1.047-1.213,1.57c0,0.001,0,0.001,0,0.002c-0.386-0.033-0.775-0.035-1.167-0.002l0,0
		c-0.404-0.522-0.809-1.047-1.214-1.57c-0.535-0.692-0.943-0.431-1.645-0.142c-0.701,0.292-1.175,0.396-1.063,1.263
		c0.084,0.658,0.168,1.313,0.252,1.969c0,0.001,0.001,0.001,0.001,0.001c-0.302,0.253-0.577,0.53-0.825,0.826l0,0
		c-0.657-0.084-1.312-0.168-1.97-0.252c-0.867-0.111-0.972,0.362-1.264,1.063c-0.289,0.701-0.55,1.11,0.143,1.645
		c0.522,0.405,1.046,0.809,1.57,1.214h0.001c-0.034,0.386-0.036,0.777-0.002,1.169c-0.522,0.402-1.046,0.809-1.568,1.211
		c-0.692,0.535-0.432,0.943-0.143,1.646c0.292,0.7,0.396,1.174,1.264,1.063c0.656-0.083,1.311-0.168,1.967-0.253
		c0.252,0.302,0.53,0.577,0.827,0.825h-0.001c-0.084,0.655-0.167,1.312-0.252,1.971c-0.112,0.866,0.362,0.969,1.063,1.261
		c0.702,0.291,1.11,0.554,1.645-0.139c0.405-0.525,0.81-1.049,1.214-1.572c0.387,0.034,0.777,0.036,1.169,0.002
		c0.403,0.522,0.809,1.046,1.211,1.57c0.535,0.692,0.943,0.43,1.645,0.139s1.176-0.395,1.064-1.261
		c-0.083-0.658-0.168-1.313-0.255-1.968c0.304-0.252,0.579-0.53,0.827-0.828c0.654,0.085,1.311,0.17,1.968,0.253
		c0.866,0.111,0.97-0.362,1.263-1.063C84.725,79.396,84.986,78.986,84.296,78.451z M72.651,78.093
		c-0.796-1.918,0.117-4.121,2.036-4.916c1.922-0.796,4.122,0.116,4.92,2.036c0.793,1.922-0.119,4.123-2.041,4.92
		C75.647,80.928,73.446,80.016,72.651,78.093z"/>
</g>
</svg>
