<svg width="32" height="32" viewBox="0 0 32 32" fill="none" xmlns="http://www.w3.org/2000/svg">
  <path fill="white" d="M16 0C7.16416 0 0 7.16416 0 16C0 23.0694 4.58369 29.0675 10.9427 31.1821C11.7427 31.3267 12.0346 30.8352 12.0346 30.4115C12.0346 30.0288 12.0192 28.7693 12.0115 27.4317C7.56224 28.3994 6.62145 25.5462 6.62145 25.5462C5.89313 23.6992 4.8448 23.2064 4.8448 23.2064C3.39072 22.2144 4.95488 22.2336 4.95488 22.2336C6.56128 22.3437 7.40734 23.8809 7.40734 23.8809C8.83582 26.3257 11.1539 25.6179 12.064 25.2083C12.2099 24.1779 12.6233 23.4714 13.079 23.0733C9.52702 22.6688 5.7907 21.2953 5.7907 15.1641C5.7907 13.4157 6.41536 11.9911 7.4368 10.8711C7.27424 10.4653 6.72255 8.83714 7.59551 6.63426C7.59551 6.63426 8.93697 6.20415 11.9962 8.27519C13.2711 7.91807 14.6394 7.74274 16 7.73762C17.3606 7.74274 18.729 7.92065 20.0064 8.27777C23.0592 6.20545 24.4032 6.6368 24.4032 6.6368C25.2787 8.84096 24.727 10.4666 24.5632 10.8711C25.5885 11.9911 26.208 13.4169 26.208 15.1641C26.208 21.3107 22.4653 22.6624 18.9005 23.0605C19.4765 23.5558 19.9872 24.5273 19.9872 26.0211C19.9872 28.1612 19.9655 29.8867 19.9655 30.4141C19.9655 30.839 20.2573 31.337 21.0662 31.1821C27.4202 29.0624 32 23.0669 32 16C32 7.16416 24.8358 0 16 0Z" />
</svg>
