<svg width="150" height="150" viewBox="0 0 150 150" fill="none" xmlns="http://www.w3.org/2000/svg">
  <path fill="#F5F5F5" d="M112.506 149.999V112.481H37.5183L37.4935 131.254C37.4935 136.43 37.5184 150 37.5184 150C37.5184 150 23.822 149.999 18.7468 149.999C13.5698 149.999 9.12833 148.195 5.41873 144.581C1.80512 140.871 0 136.43 0 131.254L0.0245853 37.4934C0.0245853 27.1453 3.68604 18.3073 11.0091 10.9842C18.2334 3.66132 27.0692 0 37.5183 0H112.506C122.854 0 131.693 3.71166 139.015 11.1312C146.338 18.3575 150 27.1453 150 37.4934V131.254C150 136.43 148.144 140.872 144.434 144.581C140.723 148.195 136.329 150 131.254 150L112.506 149.999ZM112.506 74.987V56.2399C112.506 51.1649 110.65 46.7709 106.941 43.0586C103.229 39.3496 98.8345 37.4934 93.7593 37.4934H56.2652C51.0885 37.4934 46.6467 39.3496 42.9376 43.0586C39.3235 46.7709 37.5184 51.1651 37.5184 56.2399V74.987H112.506Z" />
</svg>
