<?xml version="1.0" encoding="utf-8"?>
<!-- Generator: Adobe Illustrator 16.0.0, SVG Export Plug-In . SVG Version: 6.00 Build 0)  -->
<!DOCTYPE svg PUBLIC "-//W3C//DTD SVG 1.1//EN" "http://www.w3.org/Graphics/SVG/1.1/DTD/svg11.dtd">
<svg version="1.1" id="Layer_1" xmlns="http://www.w3.org/2000/svg" xmlns:xlink="http://www.w3.org/1999/xlink" x="0px" y="0px"
	 width="25.6px" height="25.6px" viewBox="-241.73 460.27 25.6 25.6" enable-background="new -241.73 460.27 25.6 25.6"
	 xml:space="preserve">
<g>
	<path fill="#EFEFEF" stroke="#000000" stroke-width="0.5" stroke-miterlimit="10" d="M-216.431,480.572
		c0,2.758-2.239,4.997-5,4.997h-15c-2.761,0-5-2.239-5-4.997v-15.004c0-2.761,2.239-4.999,5-4.999h14.999c2.761,0,5,2.238,5,4.999
		V480.572L-216.431,480.572z"/>
	<path d="M-220.59,474.905c-0.534-0.413-1.068-0.827-1.603-1.236c0.036-0.396,0.038-0.795,0.002-1.195
		c0.534-0.412,1.067-0.827,1.602-1.239c0.707-0.547,0.44-0.962,0.144-1.68c-0.296-0.714-0.402-1.199-1.289-1.085
		c-0.67,0.086-1.339,0.171-2.008,0.258c-0.258-0.309-0.542-0.59-0.845-0.843c0-0.001,0-0.001,0-0.001
		c0.086-0.671,0.172-1.341,0.258-2.012c0.114-0.886-0.37-0.994-1.086-1.289c-0.715-0.296-1.133-0.562-1.679,0.146
		c-0.413,0.532-0.826,1.065-1.239,1.601c0,0,0,0-0.001,0.001c-0.393-0.034-0.791-0.035-1.191-0.001l0,0
		c-0.413-0.535-0.826-1.068-1.239-1.601c-0.546-0.708-0.964-0.442-1.68-0.146c-0.716,0.295-1.2,0.403-1.086,1.289
		c0.085,0.671,0.171,1.34,0.258,2.012l0,0c-0.308,0.257-0.588,0.542-0.842,0.844c0,0,0,0,0,0c-0.67-0.087-1.34-0.172-2.011-0.258
		c-0.886-0.114-0.992,0.371-1.289,1.085c-0.296,0.718-0.563,1.133,0.144,1.68c0.535,0.413,1.069,0.827,1.604,1.24c0,0,0,0,0,0
		c-0.035,0.394-0.037,0.791-0.001,1.194c-0.534,0.409-1.068,0.823-1.603,1.236c-0.707,0.547-0.44,0.963-0.144,1.679
		c0.297,0.715,0.403,1.2,1.289,1.086c0.669-0.085,1.339-0.17,2.008-0.256c0.257,0.306,0.541,0.588,0.844,0.84
		c0,0.001,0,0.001,0,0.001c-0.086,0.671-0.172,1.34-0.258,2.011c-0.114,0.886,0.37,0.994,1.086,1.288
		c0.716,0.298,1.133,0.563,1.679-0.145c0.414-0.534,0.826-1.066,1.239-1.601c0.394,0.034,0.793,0.036,1.193,0.001
		c0.413,0.536,0.825,1.067,1.238,1.6c0.546,0.708,0.963,0.442,1.679,0.145c0.716-0.294,1.2-0.402,1.086-1.288
		c-0.085-0.67-0.172-1.338-0.257-2.009c0.308-0.257,0.588-0.541,0.842-0.843c0.669,0.086,1.339,0.171,2.009,0.257
		c0.886,0.113,0.993-0.372,1.289-1.087C-220.15,475.868-219.883,475.452-220.59,474.905z M-232.481,474.541
		c-0.813-1.962,0.119-4.212,2.08-5.023c1.961-0.813,4.21,0.12,5.022,2.081c0.812,1.961-0.119,4.212-2.081,5.023
		C-229.42,477.434-231.668,476.503-232.481,474.541z"/>
</g>
</svg>
