<?xml version="1.0" encoding="utf-8"?>
<!-- Generator: Adobe Illustrator 16.0.0, SVG Export Plug-In . SVG Version: 6.00 Build 0)  -->
<!DOCTYPE svg PUBLIC "-//W3C//DTD SVG 1.1//EN" "http://www.w3.org/Graphics/SVG/1.1/DTD/svg11.dtd">
<svg version="1.1" id="Layer_1" xmlns="http://www.w3.org/2000/svg" xmlns:xlink="http://www.w3.org/1999/xlink" x="0px" y="0px"
	 width="25px" height="25px" viewBox="64 64 25 25" enable-background="new 64 64 25 25" xml:space="preserve">
<g>
	<path fill="#D3D3D3" stroke="#000000" stroke-width="0.5" stroke-miterlimit="10" d="M88.76,83.862
		c0,2.704-2.193,4.897-4.896,4.897H69.159c-2.705,0-4.9-2.193-4.9-4.897V69.159c0-2.706,2.195-4.9,4.9-4.9h14.703
		c2.704,0,4.897,2.194,4.897,4.9V83.862L88.76,83.862z"/>
	<path fill="#0B0C0B" d="M84.863,78.438c-0.527-0.408-1.055-0.814-1.584-1.223c0.036-0.39,0.038-0.785,0.002-1.18
		c0.528-0.408,1.056-0.815,1.583-1.223c0.698-0.54,0.436-0.952,0.143-1.659c-0.294-0.707-0.399-1.185-1.273-1.073
		c-0.663,0.084-1.323,0.169-1.984,0.254c-0.255-0.304-0.535-0.582-0.835-0.833c0-0.001,0-0.001,0.001-0.002
		c0.085-0.662,0.169-1.324,0.255-1.986c0.111-0.875-0.366-0.98-1.074-1.274c-0.706-0.292-1.119-0.556-1.658,0.143
		c-0.408,0.528-0.815,1.057-1.225,1.584c0,0.001,0,0.001,0,0.002c-0.389-0.035-0.783-0.037-1.178-0.002l0,0
		c-0.408-0.528-0.816-1.056-1.225-1.584c-0.54-0.698-0.952-0.435-1.659-0.143c-0.707,0.294-1.185,0.399-1.073,1.274
		c0.085,0.663,0.17,1.324,0.255,1.986c0,0.001,0,0.001,0,0.001c-0.304,0.255-0.582,0.535-0.832,0.834l0,0
		c-0.663-0.085-1.324-0.17-1.987-0.255c-0.875-0.112-0.98,0.365-1.274,1.073c-0.292,0.708-0.556,1.12,0.143,1.659
		c0.528,0.408,1.056,0.816,1.584,1.225h0.001c-0.035,0.389-0.037,0.783-0.002,1.178c-0.527,0.408-1.055,0.815-1.582,1.223
		c-0.699,0.539-0.435,0.951-0.143,1.659c0.293,0.707,0.398,1.185,1.274,1.073c0.661-0.086,1.323-0.17,1.984-0.255
		c0.255,0.304,0.535,0.581,0.834,0.831h0c-0.085,0.662-0.17,1.324-0.255,1.987c-0.112,0.875,0.366,0.979,1.073,1.273
		c0.707,0.293,1.12,0.557,1.659-0.142c0.408-0.528,0.816-1.057,1.225-1.585c0.389,0.035,0.784,0.037,1.18,0.002
		c0.408,0.527,0.814,1.056,1.223,1.583c0.539,0.698,0.951,0.435,1.658,0.142s1.186-0.398,1.074-1.273
		c-0.086-0.662-0.17-1.323-0.255-1.984c0.304-0.254,0.581-0.534,0.831-0.834c0.662,0.085,1.323,0.169,1.986,0.255
		c0.874,0.111,0.979-0.366,1.273-1.073C85.298,79.39,85.562,78.977,84.863,78.438z M73.116,78.078
		c-0.803-1.938,0.118-4.159,2.055-4.962c1.938-0.803,4.159,0.118,4.961,2.055c0.803,1.938-0.117,4.159-2.056,4.961
		C76.141,80.937,73.919,80.016,73.116,78.078z"/>
</g>
</svg>
