<?xml version="1.0" encoding="utf-8"?>
<!-- Generator: Adobe Illustrator 16.0.0, SVG Export Plug-In . SVG Version: 6.00 Build 0)  -->
<!DOCTYPE svg PUBLIC "-//W3C//DTD SVG 1.1//EN" "http://www.w3.org/Graphics/SVG/1.1/DTD/svg11.dtd">
<svg version="1.1" id="Layer_1" xmlns="http://www.w3.org/2000/svg" xmlns:xlink="http://www.w3.org/1999/xlink" x="0px" y="0px"
	 width="25px" height="25px" viewBox="11.5 11.5 25 25" enable-background="new 11.5 11.5 25 25" xml:space="preserve">
<path d="M19.001,31.501c-1.382,0-2.489,1.118-2.489,2.499s1.107,2.5,2.489,2.5c1.381,0,2.5-1.119,2.5-2.5
	S20.382,31.501,19.001,31.501z M11.5,11.5v2.501h2.501l4.494,9.481l-1.688,3.063c-0.194,0.362-0.308,0.769-0.308,1.203
	c0,1.384,1.12,2.503,2.501,2.503h15v-2.503H19.532c-0.176,0-0.312-0.134-0.312-0.31c0-0.056,0.011-0.104,0.037-0.15l1.118-2.038
	h9.314c0.934,0,1.755-0.519,2.187-1.286l4.468-8.113c0.098-0.175,0.155-0.382,0.155-0.6c0-0.694-0.561-1.25-1.249-1.25H16.77
	L15.581,11.5H11.5z M31.501,31.501c-1.38,0-2.487,1.118-2.487,2.499s1.107,2.5,2.487,2.5c1.381,0,2.5-1.119,2.5-2.5
	S32.882,31.501,31.501,31.501z"/>
</svg>
