<?xml version="1.0" encoding="utf-8"?>
<!-- Generator: Adobe Illustrator 16.0.0, SVG Export Plug-In . SVG Version: 6.00 Build 0)  -->
<!DOCTYPE svg PUBLIC "-//W3C//DTD SVG 1.1//EN" "http://www.w3.org/Graphics/SVG/1.1/DTD/svg11.dtd">
<svg version="1.1" id="Layer_1" xmlns="http://www.w3.org/2000/svg" xmlns:xlink="http://www.w3.org/1999/xlink" x="0px" y="0px"
	 width="25px" height="25px" viewBox="499.5 499.5 25 25" enable-background="new 499.5 499.5 25 25" xml:space="preserve">
<path d="M512,499.5c-6.903,0-12.5,5.597-12.5,12.5c0,5.523,3.581,10.209,8.549,11.861c0.625,0.113,0.853-0.271,0.853-0.602
	c0-0.299-0.012-1.283-0.018-2.328c-3.476,0.756-4.211-1.473-4.211-1.473c-0.569-1.443-1.388-1.828-1.388-1.828
	c-1.136-0.775,0.086-0.76,0.086-0.76c1.255,0.086,1.916,1.287,1.916,1.287c1.116,1.91,2.927,1.357,3.638,1.037
	c0.114-0.805,0.437-1.357,0.793-1.668c-2.775-0.316-5.694-1.389-5.694-6.179c0-1.366,0.488-2.479,1.286-3.354
	c-0.127-0.317-0.558-1.589,0.124-3.31c0,0,1.048-0.336,3.438,1.282c0.996-0.279,2.065-0.416,3.128-0.42
	c1.063,0.004,2.132,0.143,3.13,0.422c2.385-1.619,3.435-1.282,3.435-1.282c0.684,1.722,0.253,2.992,0.125,3.308
	c0.801,0.875,1.285,1.989,1.285,3.354c0,4.802-2.924,5.858-5.709,6.169c0.45,0.387,0.849,1.146,0.849,2.313
	c0,1.672-0.017,3.02-0.017,3.432c0,0.332,0.228,0.721,0.86,0.6c4.964-1.656,8.542-6.34,8.542-11.861
	C524.5,505.097,518.903,499.5,512,499.5z"/>
</svg>
